<svg width="65" height="64" viewBox="0 0 65 64" fill="none" xmlns="http://www.w3.org/2000/svg">
<path d="M54.5 26H26.0225L53 18.8775C53.2554 18.8102 53.4949 18.693 53.7047 18.5327C53.9146 18.3724 54.0906 18.1721 54.2226 17.9434C54.3546 17.7146 54.44 17.4621 54.4739 17.2002C54.5078 16.9383 54.4895 16.6723 54.42 16.4175L52.38 8.9175C52.0993 7.90847 51.4323 7.05066 50.5236 6.52986C49.6149 6.00906 48.5376 5.8672 47.525 6.135L9.4525 16.185C8.94557 16.3166 8.46999 16.548 8.05359 16.8656C7.6372 17.1833 7.28836 17.5809 7.0275 18.035C6.76518 18.4836 6.59571 18.9803 6.52914 19.4956C6.46257 20.011 6.50027 20.5345 6.64 21.035L8.5 27.89C8.5 27.925 8.5 27.9625 8.5 28V50C8.5 51.0608 8.92143 52.0783 9.67158 52.8284C10.4217 53.5786 11.4391 54 12.5 54H52.5C53.5609 54 54.5783 53.5786 55.3285 52.8284C56.0786 52.0783 56.5 51.0608 56.5 50V28C56.5 27.4696 56.2893 26.9609 55.9143 26.5858C55.5392 26.2107 55.0305 26 54.5 26ZM48.54 10L50.04 15.5175L44.385 17.0175L37.355 12.9575L48.54 10ZM31.8675 14.4L38.8975 18.46L29.6625 20.8975L22.6325 16.8425L31.8675 14.4ZM12.0175 25.555L10.5175 20.035L17.1425 18.285L24.1725 22.35L12.0175 25.555ZM52.5 50H12.5V30H52.5V50Z" fill="#EAE2B7"/>
</svg>
