<svg width="20" height="21" viewBox="0 0 20 21" fill="none" xmlns="http://www.w3.org/2000/svg">
<g clip-path="url(#clip0_42_171)">
<path d="M17.7594 6.25815L14.268 2.76752C14.1519 2.65142 14.0141 2.55932 13.8624 2.49648C13.7107 2.43365 13.5482 2.40131 13.384 2.40131C13.2198 2.40131 13.0572 2.43365 12.9056 2.49648C12.7539 2.55932 12.6161 2.65142 12.5 2.76752L2.86641 12.4011C2.74983 12.5168 2.65741 12.6544 2.59451 12.8061C2.5316 12.9578 2.49948 13.1205 2.50001 13.2847V16.7761C2.50001 17.1076 2.6317 17.4256 2.86612 17.66C3.10054 17.8944 3.41849 18.0261 3.75001 18.0261H16.875C17.0408 18.0261 17.1997 17.9603 17.3169 17.8431C17.4342 17.7259 17.5 17.5669 17.5 17.4011C17.5 17.2354 17.4342 17.0764 17.3169 16.9592C17.1997 16.842 17.0408 16.7761 16.875 16.7761H9.00938L17.7594 8.02612C17.8755 7.91004 17.9676 7.77223 18.0304 7.62055C18.0933 7.46888 18.1256 7.30631 18.1256 7.14213C18.1256 6.97796 18.0933 6.81539 18.0304 6.66371C17.9676 6.51204 17.8755 6.37423 17.7594 6.25815ZM6.19688 15.2136L13.2547 8.15581L14.5586 9.45893L7.5 16.5175L6.19688 15.2136ZM12.3688 7.27143L5.31251 14.33L4.0086 13.0261L11.0672 5.96831L12.3688 7.27143ZM3.75001 14.5347L5.99141 16.7761H3.75001V14.5347Z" fill="#EAE2B7"/>
</g>
<defs>
<clipPath id="clip0_42_171">
<rect width="20" height="20" fill="white" transform="translate(0 0.526123)"/>
</clipPath>
</defs>
</svg>
