<svg width="33" height="32" viewBox="0 0 33 32" fill="none" xmlns="http://www.w3.org/2000/svg">
<g clip-path="url(#clip0_51_199)">
<path d="M28.5 6H4.5C4.23478 6 3.98043 6.10536 3.79289 6.29289C3.60536 6.48043 3.5 6.73478 3.5 7V24C3.5 24.5304 3.71071 25.0391 4.08579 25.4142C4.46086 25.7893 4.96957 26 5.5 26H27.5C28.0304 26 28.5391 25.7893 28.9142 25.4142C29.2893 25.0391 29.5 24.5304 29.5 24V7C29.5 6.73478 29.3946 6.48043 29.2071 6.29289C29.0196 6.10536 28.7652 6 28.5 6ZM27.5 24H5.5V9.27375L15.8237 18.7375C16.0082 18.9069 16.2496 19.0008 16.5 19.0008C16.7504 19.0008 16.9918 18.9069 17.1763 18.7375L27.5 9.27375V24Z" fill="black"/>
</g>
<defs>
<clipPath id="clip0_51_199">
<rect width="32" height="32" fill="white" transform="translate(0.5)"/>
</clipPath>
</defs>
</svg>
