<svg width="32" height="33" viewBox="0 0 32 33" fill="none" xmlns="http://www.w3.org/2000/svg">
<path d="M30.9137 16.095C30.87 15.9963 29.8112 13.6475 27.4575 11.2937C24.3212 8.1575 20.36 6.5 16 6.5C11.64 6.5 7.67874 8.1575 4.54249 11.2937C2.18874 13.6475 1.12499 16 1.08624 16.095C1.02938 16.2229 1 16.3613 1 16.5012C1 16.6412 1.02938 16.7796 1.08624 16.9075C1.12999 17.0062 2.18874 19.3538 4.54249 21.7075C7.67874 24.8425 11.64 26.5 16 26.5C20.36 26.5 24.3212 24.8425 27.4575 21.7075C29.8112 19.3538 30.87 17.0062 30.9137 16.9075C30.9706 16.7796 31 16.6412 31 16.5012C31 16.3613 30.9706 16.2229 30.9137 16.095ZM16 24.5C12.1525 24.5 8.79124 23.1012 6.00874 20.3438C4.86704 19.2084 3.89572 17.9137 3.12499 16.5C3.89551 15.0862 4.86686 13.7915 6.00874 12.6562C8.79124 9.89875 12.1525 8.5 16 8.5C19.8475 8.5 23.2087 9.89875 25.9912 12.6562C27.1352 13.7912 28.1086 15.0859 28.8812 16.5C27.98 18.1825 24.0537 24.5 16 24.5ZM16 10.5C14.8133 10.5 13.6533 10.8519 12.6666 11.5112C11.6799 12.1705 10.9108 13.1075 10.4567 14.2039C10.0026 15.3003 9.88377 16.5067 10.1153 17.6705C10.3468 18.8344 10.9182 19.9035 11.7573 20.7426C12.5965 21.5818 13.6656 22.1532 14.8294 22.3847C15.9933 22.6162 17.1997 22.4974 18.2961 22.0433C19.3924 21.5892 20.3295 20.8201 20.9888 19.8334C21.6481 18.8467 22 17.6867 22 16.5C21.9983 14.9092 21.3657 13.384 20.2408 12.2592C19.1159 11.1343 17.5908 10.5017 16 10.5ZM16 20.5C15.2089 20.5 14.4355 20.2654 13.7777 19.8259C13.1199 19.3864 12.6072 18.7616 12.3045 18.0307C12.0017 17.2998 11.9225 16.4956 12.0768 15.7196C12.2312 14.9437 12.6122 14.231 13.1716 13.6716C13.731 13.1122 14.4437 12.7312 15.2196 12.5769C15.9956 12.4225 16.7998 12.5017 17.5307 12.8045C18.2616 13.1072 18.8863 13.6199 19.3259 14.2777C19.7654 14.9355 20 15.7089 20 16.5C20 17.5609 19.5786 18.5783 18.8284 19.3284C18.0783 20.0786 17.0609 20.5 16 20.5Z" fill="black"/>
</svg>
