<svg width="33" height="32" viewBox="0 0 33 32" fill="none" xmlns="http://www.w3.org/2000/svg">
<path d="M4.5 8C4.5 7.73478 4.60536 7.48043 4.79289 7.29289C4.98043 7.10536 5.23478 7 5.5 7H27.5C27.7652 7 28.0196 7.10536 28.2071 7.29289C28.3946 7.48043 28.5 7.73478 28.5 8C28.5 8.26522 28.3946 8.51957 28.2071 8.70711C28.0196 8.89464 27.7652 9 27.5 9H5.5C5.23478 9 4.98043 8.89464 4.79289 8.70711C4.60536 8.51957 4.5 8.26522 4.5 8ZM5.5 17H12.5C12.7652 17 13.0196 16.8946 13.2071 16.7071C13.3946 16.5196 13.5 16.2652 13.5 16C13.5 15.7348 13.3946 15.4804 13.2071 15.2929C13.0196 15.1054 12.7652 15 12.5 15H5.5C5.23478 15 4.98043 15.1054 4.79289 15.2929C4.60536 15.4804 4.5 15.7348 4.5 16C4.5 16.2652 4.60536 16.5196 4.79289 16.7071C4.98043 16.8946 5.23478 17 5.5 17ZM14.5 23H5.5C5.23478 23 4.98043 23.1054 4.79289 23.2929C4.60536 23.4804 4.5 23.7348 4.5 24C4.5 24.2652 4.60536 24.5196 4.79289 24.7071C4.98043 24.8946 5.23478 25 5.5 25H14.5C14.7652 25 15.0196 24.8946 15.2071 24.7071C15.3946 24.5196 15.5 24.2652 15.5 24C15.5 23.7348 15.3946 23.4804 15.2071 23.2929C15.0196 23.1054 14.7652 23 14.5 23ZM30.1362 17.9725L27.3213 20.2962L28.1787 23.76C28.2258 23.951 28.2154 24.1516 28.149 24.3367C28.0826 24.5218 27.963 24.6832 27.8053 24.8008C27.6476 24.9183 27.4588 24.9867 27.2624 24.9975C27.066 25.0083 26.8708 24.9609 26.7013 24.8612L23.5 22.9775L20.2987 24.8612C20.1292 24.9609 19.934 25.0083 19.7376 24.9975C19.5412 24.9867 19.3524 24.9183 19.1947 24.8008C19.037 24.6832 18.9174 24.5218 18.851 24.3367C18.7846 24.1516 18.7742 23.951 18.8213 23.76L19.6775 20.2962L16.8638 17.9725C16.7103 17.8456 16.5983 17.6758 16.5419 17.4848C16.4856 17.2938 16.4876 17.0903 16.5476 16.9005C16.6076 16.7106 16.7229 16.543 16.8788 16.4191C17.0347 16.2952 17.224 16.2206 17.4225 16.205L21.1525 15.9163L22.5812 12.6038C22.6585 12.4241 22.7866 12.271 22.9499 12.1635C23.1132 12.0559 23.3045 11.9986 23.5 11.9986C23.6955 11.9986 23.8868 12.0559 24.0501 12.1635C24.2134 12.271 24.3415 12.4241 24.4188 12.6038L25.8475 15.9163L29.5775 16.205C29.776 16.2206 29.9653 16.2952 30.1212 16.4191C30.2771 16.543 30.3924 16.7106 30.4524 16.9005C30.5124 17.0903 30.5144 17.2938 30.4581 17.4848C30.4017 17.6758 30.2897 17.8456 30.1362 17.9725ZM26.9525 18.0075L25.0912 17.8638C24.9097 17.8498 24.7354 17.7866 24.5871 17.6808C24.4389 17.5751 24.3223 17.4309 24.25 17.2638L23.5 15.5238L22.75 17.2638C22.6777 17.4309 22.5611 17.5751 22.4129 17.6808C22.2646 17.7866 22.0903 17.8498 21.9088 17.8638L20.0475 18.0075L21.4363 19.155C21.5817 19.2749 21.6903 19.4334 21.7496 19.6123C21.8089 19.7912 21.8164 19.9833 21.7712 20.1663L21.3337 21.9312L22.9925 20.955C23.1463 20.8644 23.3215 20.8167 23.5 20.8167C23.6785 20.8167 23.8537 20.8644 24.0075 20.955L25.6663 21.9312L25.2288 20.1663C25.1836 19.9833 25.1911 19.7912 25.2504 19.6123C25.3097 19.4334 25.4183 19.2749 25.5637 19.155L26.9525 18.0075Z" fill="#F77F00"/>
</svg>
