<svg width="32" height="32" viewBox="0 0 32 32" fill="none" xmlns="http://www.w3.org/2000/svg">
<path d="M27 13H12.7612L26.25 9.43876C26.3777 9.40511 26.4974 9.34652 26.6023 9.26635C26.7073 9.18619 26.7953 9.08604 26.8613 8.97169C26.9273 8.85733 26.97 8.73104 26.9869 8.6001C27.0039 8.46915 26.9947 8.33614 26.96 8.20876L25.94 4.45876C25.7996 3.95424 25.4661 3.52534 25.0118 3.26494C24.5574 3.00454 24.0188 2.93361 23.5125 3.06751L4.47625 8.09251C4.22279 8.1583 3.98499 8.274 3.7768 8.43283C3.5686 8.59166 3.39418 8.79043 3.26375 9.01751C3.13259 9.24179 3.04785 9.49015 3.01457 9.74783C2.98129 10.0055 3.00014 10.2673 3.07 10.5175L4 13.945C4 13.9625 4 13.9813 4 14V25C4 25.5304 4.21071 26.0391 4.58579 26.4142C4.96086 26.7893 5.46957 27 6 27H26C26.5304 27 27.0391 26.7893 27.4142 26.4142C27.7893 26.0391 28 25.5304 28 25V14C28 13.7348 27.8946 13.4804 27.7071 13.2929C27.5196 13.1054 27.2652 13 27 13ZM24.02 5.00001L24.77 7.75876L21.9425 8.50876L18.4275 6.47876L24.02 5.00001ZM15.6838 7.20001L19.1987 9.23001L14.5813 10.4488L11.0662 8.42126L15.6838 7.20001ZM5.75875 12.7775L5.00875 10.0175L8.32125 9.14251L11.8363 11.175L5.75875 12.7775ZM26 25H6V15H26V25Z" fill="#EAE2B7"/>
</svg>
