<svg width="32" height="33" viewBox="0 0 32 33" fill="none" xmlns="http://www.w3.org/2000/svg">
<path d="M6 7.5V25.5C6 25.7652 5.89464 26.0196 5.70711 26.2071C5.51957 26.3946 5.26522 26.5 5 26.5C4.73478 26.5 4.48043 26.3946 4.29289 26.2071C4.10536 26.0196 4 25.7652 4 25.5V7.5C4 7.23478 4.10536 6.98043 4.29289 6.79289C4.48043 6.60536 4.73478 6.5 5 6.5C5.26522 6.5 5.51957 6.60536 5.70711 6.79289C5.89464 6.98043 6 7.23478 6 7.5ZM17.5 14.3125L15 15.125V12.5C15 12.2348 14.8946 11.9804 14.7071 11.7929C14.5196 11.6054 14.2652 11.5 14 11.5C13.7348 11.5 13.4804 11.6054 13.2929 11.7929C13.1054 11.9804 13 12.2348 13 12.5V15.125L10.5 14.3125C10.2477 14.2296 9.97284 14.2504 9.73584 14.3701C9.49884 14.4899 9.31913 14.699 9.23625 14.9513C9.15337 15.2035 9.17411 15.4784 9.29389 15.7154C9.41368 15.9524 9.62271 16.1321 9.875 16.215L12.375 17.0263L10.8325 19.1513C10.751 19.2572 10.6915 19.3783 10.6576 19.5076C10.6238 19.6369 10.6161 19.7717 10.6352 19.904C10.6543 20.0363 10.6997 20.1634 10.7688 20.2778C10.8378 20.3922 10.9291 20.4917 11.0372 20.5702C11.1454 20.6488 11.2682 20.7048 11.3983 20.7351C11.5285 20.7654 11.6634 20.7693 11.7951 20.7466C11.9268 20.7238 12.0527 20.6749 12.1651 20.6027C12.2776 20.5305 12.3745 20.4365 12.45 20.3263L13.9925 18.2013L15.535 20.3263C15.6105 20.4365 15.7074 20.5305 15.8199 20.6027C15.9323 20.6749 16.0582 20.7238 16.1899 20.7466C16.3216 20.7693 16.4565 20.7654 16.5867 20.7351C16.7168 20.7048 16.8396 20.6488 16.9478 20.5702C17.0559 20.4917 17.1472 20.3922 17.2162 20.2778C17.2853 20.1634 17.3307 20.0363 17.3498 19.904C17.3689 19.7717 17.3612 19.6369 17.3274 19.5076C17.2935 19.3783 17.234 19.2572 17.1525 19.1513L15.61 17.0263L18.11 16.215C18.3511 16.1253 18.5484 15.9461 18.6609 15.7147C18.7733 15.4833 18.7922 15.2174 18.7136 14.9724C18.6351 14.7274 18.4651 14.5221 18.2391 14.3992C18.013 14.2763 17.7483 14.2453 17.5 14.3125ZM30.75 14.955C30.668 14.705 30.4909 14.4974 30.2569 14.3771C30.0229 14.2569 29.751 14.2336 29.5 14.3125L27 15.125V12.5C27 12.2348 26.8946 11.9804 26.7071 11.7929C26.5196 11.6054 26.2652 11.5 26 11.5C25.7348 11.5 25.4804 11.6054 25.2929 11.7929C25.1054 11.9804 25 12.2348 25 12.5V15.125L22.5 14.3138C22.2477 14.2317 21.9732 14.2532 21.7368 14.3736C21.5003 14.494 21.3214 14.7033 21.2394 14.9556C21.1573 15.2079 21.1789 15.4825 21.2992 15.7189C21.4196 15.9553 21.629 16.1342 21.8813 16.2163L24.3813 17.0275L22.8388 19.1525C22.7572 19.2584 22.6978 19.3796 22.6639 19.5089C22.63 19.6382 22.6224 19.7729 22.6415 19.9052C22.6606 20.0375 22.706 20.1646 22.775 20.2791C22.8441 20.3935 22.9354 20.4929 23.0435 20.5715C23.1516 20.65 23.2744 20.7061 23.4046 20.7364C23.5348 20.7667 23.6697 20.7706 23.8014 20.7478C23.9331 20.7251 24.0589 20.6762 24.1714 20.604C24.2839 20.5318 24.3807 20.4378 24.4562 20.3275L25.9988 18.2025L27.5413 20.3275C27.6168 20.4378 27.7136 20.5318 27.8261 20.604C27.9386 20.6762 28.0644 20.7251 28.1961 20.7478C28.3278 20.7706 28.4627 20.7667 28.5929 20.7364C28.7231 20.7061 28.8459 20.65 28.954 20.5715C29.0621 20.4929 29.1534 20.3935 29.2225 20.2791C29.2915 20.1646 29.3369 20.0375 29.356 19.9052C29.3751 19.7729 29.3675 19.6382 29.3336 19.5089C29.2997 19.3796 29.2403 19.2584 29.1588 19.1525L27.6162 17.0275L30.1162 16.2163C30.3672 16.1326 30.5749 15.9529 30.6936 15.7165C30.8124 15.4801 30.8327 15.2063 30.75 14.955Z" fill="black"/>
</svg>
