<svg width="33" height="32" viewBox="0 0 33 32" fill="none" xmlns="http://www.w3.org/2000/svg">
<path d="M29.19 9.27624C29.0726 9.16583 28.9302 9.08544 28.775 9.04191C28.6199 8.99838 28.4565 8.99301 28.2988 9.02624C28.1046 8.32821 27.7744 7.67542 27.3272 7.10538C26.88 6.53534 26.3245 6.05928 25.6927 5.70455C25.061 5.34981 24.3654 5.1234 23.6458 5.03832C22.9263 4.95323 22.1971 5.01115 21.5 5.20874C21.0613 4.25133 20.3569 3.44001 19.4705 2.8712C18.5842 2.3024 17.5532 2.00003 16.5 2.00003C15.4468 2.00003 14.4158 2.3024 13.5295 2.8712C12.6431 3.44001 11.9387 4.25133 11.5 5.20874C10.8031 5.01089 10.074 4.95267 9.3545 5.03742C8.63502 5.12217 7.93938 5.34823 7.30752 5.7026C6.67566 6.05698 6.12004 6.53269 5.67256 7.10242C5.22509 7.67214 4.89457 8.32466 4.7 9.02249C4.53573 8.98878 4.36562 8.99692 4.20531 9.04617C4.04501 9.09542 3.89967 9.18419 3.78265 9.30431C3.66564 9.42444 3.58071 9.57206 3.53569 9.7336C3.49067 9.89514 3.48699 10.0654 3.525 10.2287L7.345 26.4587C7.44841 26.8975 7.69703 27.2885 8.05053 27.5683C8.40404 27.8481 8.84169 28.0002 9.2925 28H23.7075C24.1583 28.0002 24.596 27.8481 24.9495 27.5683C25.303 27.2885 25.5516 26.8975 25.655 26.4587L29.4738 10.2287C29.5136 10.059 29.5084 9.88183 29.4586 9.71475C29.4088 9.54766 29.3162 9.3965 29.19 9.27624ZM10 6.99999C10.5715 6.9984 11.1345 7.1384 11.6388 7.40749C11.7749 7.4797 11.9258 7.51947 12.0799 7.5237C12.2339 7.52793 12.3868 7.49651 12.5267 7.4319C12.6666 7.36728 12.7896 7.27121 12.8863 7.15119C12.9829 7.03117 13.0505 6.89044 13.0838 6.73999C13.2568 5.96302 13.6896 5.26826 14.3107 4.77034C14.9317 4.27241 15.704 4.00107 16.5 4.00107C17.296 4.00107 18.0683 4.27241 18.6893 4.77034C19.3104 5.26826 19.7432 5.96302 19.9163 6.73999C19.9495 6.89044 20.0171 7.03117 20.1137 7.15119C20.2104 7.27121 20.3334 7.36728 20.4733 7.4319C20.6132 7.49651 20.7661 7.52793 20.9201 7.5237C21.0742 7.51947 21.2251 7.4797 21.3613 7.40749C21.8241 7.16196 22.3362 7.02349 22.8598 7.00229C23.3833 6.9811 23.905 7.07772 24.3862 7.28504C24.8674 7.49235 25.2959 7.80507 25.6401 8.20011C25.9844 8.59515 26.2355 9.06244 26.375 9.56749L21.555 10.9425L17.2438 9.21749C16.7671 9.02691 16.2354 9.02691 15.7588 9.21749L11.4463 10.945L6.625 9.56749C6.82909 8.82918 7.26975 8.1782 7.8794 7.71442C8.48904 7.25064 9.234 6.99966 10 6.99999ZM9.2925 26L5.86375 11.43L10.595 12.7812L12.3575 26H9.2925ZM18.625 26H14.375L12.5938 12.64L16.5 11.0775L20.4063 12.64L18.625 26ZM23.7075 26H20.6425L22.405 12.7812L27.1363 11.43L23.7075 26Z" fill="#F77F00"/>
</svg>
