<svg width="27" height="27" viewBox="0 0 27 27" fill="none" xmlns="http://www.w3.org/2000/svg">
<path d="M26.7069 24.8322L20.4482 18.5747C22.2622 16.3969 23.1668 13.6035 22.9737 10.7756C22.7807 7.94782 21.5048 5.30329 19.4116 3.39219C17.3184 1.48108 14.569 0.450539 11.7353 0.514939C8.90164 0.579339 6.20188 1.73372 4.19766 3.73795C2.19343 5.74217 1.03905 8.44193 0.974648 11.2756C0.910248 14.1093 1.94079 16.8587 3.8519 18.9519C5.763 21.0451 8.40753 22.321 11.2353 22.514C14.0632 22.7071 16.8566 21.8025 19.0344 19.9885L25.2919 26.2472C25.3848 26.3401 25.4951 26.4138 25.6165 26.4641C25.7379 26.5144 25.868 26.5403 25.9994 26.5403C26.1308 26.5403 26.2609 26.5144 26.3823 26.4641C26.5037 26.4138 26.614 26.3401 26.7069 26.2472C26.7998 26.1543 26.8735 26.044 26.9238 25.9226C26.9741 25.8012 27 25.6711 27 25.5397C27 25.4083 26.9741 25.2782 26.9238 25.1568C26.8735 25.0354 26.7998 24.9251 26.7069 24.8322ZM2.99943 11.5397C2.99943 9.75969 3.52727 8.01963 4.5162 6.53959C5.50514 5.05955 6.91074 3.90599 8.55528 3.22481C10.1998 2.54362 12.0094 2.36539 13.7552 2.71265C15.5011 3.05992 17.1047 3.91709 18.3634 5.17576C19.6221 6.43443 20.4792 8.03808 20.8265 9.78391C21.1738 11.5297 20.9955 13.3393 20.3143 14.9839C19.6332 16.6284 18.4796 18.034 16.9996 19.0229C15.5195 20.0119 13.7795 20.5397 11.9994 20.5397C9.61329 20.5371 7.32565 19.588 5.63839 17.9008C3.95114 16.2135 3.00208 13.9259 2.99943 11.5397Z" fill="#EAE2B7"/>
</svg>
