<svg width="16" height="17" viewBox="0 0 16 17" fill="none" xmlns="http://www.w3.org/2000/svg">
<path d="M14.6431 7.20427L11.8306 9.63114L12.6875 13.2605C12.7347 13.4575 12.7226 13.6642 12.6525 13.8543C12.5824 14.0444 12.4575 14.2094 12.2937 14.3286C12.1298 14.4478 11.9343 14.5157 11.7319 14.5239C11.5294 14.532 11.3291 14.4799 11.1562 14.3743L7.99996 12.4318L4.84184 14.3743C4.66898 14.4793 4.4689 14.5309 4.2668 14.5225C4.0647 14.514 3.8696 14.446 3.70609 14.3269C3.54257 14.2078 3.41795 14.0431 3.3479 13.8533C3.27786 13.6635 3.26553 13.4573 3.31246 13.2605L4.17246 9.63114L1.35996 7.20427C1.20702 7.07209 1.09641 6.89778 1.04195 6.70311C0.987486 6.50844 0.99158 6.30204 1.05372 6.10969C1.11586 5.91733 1.23329 5.74755 1.39135 5.62153C1.54941 5.49552 1.7411 5.41887 1.94246 5.40114L5.62996 5.10364L7.05246 1.66114C7.12946 1.47353 7.26051 1.31305 7.42894 1.2001C7.59738 1.08716 7.7956 1.02686 7.9984 1.02686C8.2012 1.02686 8.39942 1.08716 8.56786 1.2001C8.73629 1.31305 8.86734 1.47353 8.94434 1.66114L10.3662 5.10364L14.0537 5.40114C14.2555 5.41821 14.4477 5.49443 14.6064 5.62027C14.765 5.74611 14.883 5.91597 14.9455 6.10855C15.008 6.30114 15.0123 6.5079 14.9579 6.70292C14.9034 6.89795 14.7926 7.07256 14.6393 7.20489L14.6431 7.20427Z" fill="#D7C04B"/>
</svg>
