<svg width="33" height="32" viewBox="0 0 33 32" fill="none" xmlns="http://www.w3.org/2000/svg">
<path d="M29.5 13C29.7652 13 30.0196 12.8946 30.2071 12.7071C30.3946 12.5196 30.5 12.2652 30.5 12V8C30.5 7.46957 30.2893 6.96086 29.9142 6.58579C29.5391 6.21071 29.0304 6 28.5 6H4.5C3.96957 6 3.46086 6.21071 3.08579 6.58579C2.71071 6.96086 2.5 7.46957 2.5 8V12C2.5 12.2652 2.60536 12.5196 2.79289 12.7071C2.98043 12.8946 3.23478 13 3.5 13C4.29565 13 5.05871 13.3161 5.62132 13.8787C6.18393 14.4413 6.5 15.2044 6.5 16C6.5 16.7956 6.18393 17.5587 5.62132 18.1213C5.05871 18.6839 4.29565 19 3.5 19C3.23478 19 2.98043 19.1054 2.79289 19.2929C2.60536 19.4804 2.5 19.7348 2.5 20V24C2.5 24.5304 2.71071 25.0391 3.08579 25.4142C3.46086 25.7893 3.96957 26 4.5 26H28.5C29.0304 26 29.5391 25.7893 29.9142 25.4142C30.2893 25.0391 30.5 24.5304 30.5 24V20C30.5 19.7348 30.3946 19.4804 30.2071 19.2929C30.0196 19.1054 29.7652 19 29.5 19C28.7044 19 27.9413 18.6839 27.3787 18.1213C26.8161 17.5587 26.5 16.7956 26.5 16C26.5 15.2044 26.8161 14.4413 27.3787 13.8787C27.9413 13.3161 28.7044 13 29.5 13ZM4.5 20.9C5.63029 20.6705 6.64647 20.0573 7.37638 19.1643C8.10628 18.2712 8.50501 17.1534 8.50501 16C8.50501 14.8466 8.10628 13.7288 7.37638 12.8357C6.64647 11.9427 5.63029 11.3295 4.5 11.1V8H11.5V24H4.5V20.9ZM28.5 20.9V24H13.5V8H28.5V11.1C27.3697 11.3295 26.3535 11.9427 25.6236 12.8357C24.8937 13.7288 24.495 14.8466 24.495 16C24.495 17.1534 24.8937 18.2712 25.6236 19.1643C26.3535 20.0573 27.3697 20.6705 28.5 20.9Z" fill="#F77F00"/>
</svg>
