<svg width="20" height="21" viewBox="0 0 20 21" fill="none" xmlns="http://www.w3.org/2000/svg">
<g clip-path="url(#clip0_42_175)">
<path d="M17.8333 4.23766H14.5V3.62228C14.5 3.13265 14.2893 2.66307 13.9142 2.31685C13.5391 1.97063 13.0304 1.77612 12.5 1.77612H8.5C7.96957 1.77612 7.46086 1.97063 7.08579 2.31685C6.71071 2.66307 6.5 3.13265 6.5 3.62228V4.23766H3.16667C2.98986 4.23766 2.82029 4.3025 2.69526 4.4179C2.57024 4.53331 2.5 4.68984 2.5 4.85305C2.5 5.01626 2.57024 5.17278 2.69526 5.28819C2.82029 5.4036 2.98986 5.46843 3.16667 5.46843H3.83333V16.5454C3.83333 16.8718 3.97381 17.1848 4.22386 17.4156C4.47391 17.6465 4.81304 17.7761 5.16667 17.7761H15.8333C16.187 17.7761 16.5261 17.6465 16.7761 17.4156C17.0262 17.1848 17.1667 16.8718 17.1667 16.5454V5.46843H17.8333C18.0101 5.46843 18.1797 5.4036 18.3047 5.28819C18.4298 5.17278 18.5 5.01626 18.5 4.85305C18.5 4.68984 18.4298 4.53331 18.3047 4.4179C18.1797 4.3025 18.0101 4.23766 17.8333 4.23766ZM9.16667 13.4684C9.16667 13.6316 9.09643 13.7882 8.9714 13.9036C8.84638 14.019 8.67681 14.0838 8.5 14.0838C8.32319 14.0838 8.15362 14.019 8.0286 13.9036C7.90357 13.7882 7.83333 13.6316 7.83333 13.4684V8.54535C7.83333 8.38214 7.90357 8.22562 8.0286 8.11021C8.15362 7.9948 8.32319 7.92997 8.5 7.92997C8.67681 7.92997 8.84638 7.9948 8.9714 8.11021C9.09643 8.22562 9.16667 8.38214 9.16667 8.54535V13.4684ZM13.1667 13.4684C13.1667 13.6316 13.0964 13.7882 12.9714 13.9036C12.8464 14.019 12.6768 14.0838 12.5 14.0838C12.3232 14.0838 12.1536 14.019 12.0286 13.9036C11.9036 13.7882 11.8333 13.6316 11.8333 13.4684V8.54535C11.8333 8.38214 11.9036 8.22562 12.0286 8.11021C12.1536 7.9948 12.3232 7.92997 12.5 7.92997C12.6768 7.92997 12.8464 7.9948 12.9714 8.11021C13.0964 8.22562 13.1667 8.38214 13.1667 8.54535V13.4684ZM13.1667 4.23766H7.83333V3.62228C7.83333 3.45907 7.90357 3.30254 8.0286 3.18713C8.15362 3.07173 8.32319 3.00689 8.5 3.00689H12.5C12.6768 3.00689 12.8464 3.07173 12.9714 3.18713C13.0964 3.30254 13.1667 3.45907 13.1667 3.62228V4.23766Z" fill="#EAE2B7"/>
</g>
<defs>
<clipPath id="clip0_42_175">
<rect width="20" height="20" fill="white" transform="translate(0 0.526123)"/>
</clipPath>
</defs>
</svg>
