<svg width="27" height="26" viewBox="0 0 27 26" fill="none" xmlns="http://www.w3.org/2000/svg">
<path d="M26.8525 23.5034C24.9487 20.2122 22.015 17.8521 18.5912 16.7334C20.2847 15.7252 21.6005 14.189 22.3365 12.3606C23.0724 10.5323 23.1879 8.5129 22.665 6.6126C22.1422 4.71229 21.0101 3.03614 19.4424 1.84156C17.8748 0.64697 15.9584 0 13.9875 0C12.0165 0 10.1001 0.64697 8.53249 1.84156C6.96486 3.03614 5.8327 4.71229 5.30989 6.6126C4.78707 8.5129 4.90249 10.5323 5.63844 12.3606C6.37439 14.189 7.69017 15.7252 9.38371 16.7334C5.95996 17.8509 3.02621 20.2109 1.12246 23.5034C1.05265 23.6172 1.00634 23.7439 0.986271 23.8759C0.966203 24.0079 0.97278 24.1426 1.00562 24.2721C1.03845 24.4015 1.09688 24.5231 1.17745 24.6296C1.25802 24.7361 1.35911 24.8253 1.47474 24.8921C1.59038 24.9589 1.71822 25.0019 1.85072 25.0185C1.98322 25.035 2.11771 25.0249 2.24624 24.9887C2.37477 24.9525 2.49474 24.8909 2.59907 24.8075C2.7034 24.7242 2.78999 24.6208 2.85371 24.5034C5.20871 20.4334 9.37121 18.0034 13.9875 18.0034C18.6037 18.0034 22.7662 20.4334 25.1212 24.5034C25.1849 24.6208 25.2715 24.7242 25.3759 24.8075C25.4802 24.8909 25.6002 24.9525 25.7287 24.9887C25.8572 25.0249 25.9917 25.035 26.1242 25.0185C26.2567 25.0019 26.3845 24.9589 26.5002 24.8921C26.6158 24.8253 26.7169 24.7361 26.7975 24.6296C26.878 24.5231 26.9365 24.4015 26.9693 24.2721C27.0021 24.1426 27.0087 24.0079 26.9886 23.8759C26.9686 23.7439 26.9223 23.6172 26.8525 23.5034ZM6.98746 9.0034C6.98746 7.61893 7.398 6.26555 8.16717 5.11441C8.93634 3.96327 10.0296 3.06606 11.3087 2.53624C12.5878 2.00643 13.9952 1.86781 15.3531 2.1379C16.711 2.408 17.9582 3.07469 18.9372 4.05365C19.9162 5.03262 20.5829 6.2799 20.853 7.63777C21.1231 8.99564 20.9844 10.4031 20.4546 11.6822C19.9248 12.9613 19.0276 14.0545 17.8765 14.8237C16.7253 15.5929 15.3719 16.0034 13.9875 16.0034C12.1316 16.0014 10.3522 15.2633 9.03991 13.951C7.72758 12.6386 6.98945 10.8593 6.98746 9.0034Z" fill="black"/>
</svg>
